<svg version="1.1" viewBox="0.0 0.0 1243.9580052493438 1257.2152230971128" fill="none" stroke="none" stroke-linecap="square" stroke-miterlimit="10" xmlns:xlink="http://www.w3.org/1999/xlink" xmlns="http://www.w3.org/2000/svg"><clipPath id="p.0"><path d="m0 0l1243.958 0l0 1257.2152l-1243.958 0l0 -1257.2152z" clip-rule="nonzero"/></clipPath><g clip-path="url(#p.0)"><path fill="#000000" fill-opacity="0.0" d="m0 0l1243.958 0l0 1257.2152l-1243.958 0z" fill-rule="evenodd"/><path fill="#000000" fill-opacity="0.0" d="m54.20055 628.6076l0 0c0 -313.57596 254.20357 -567.7795 567.77954 -567.7795l0 0c150.58447 0 295.0014 59.819458 401.4807 166.29877c106.47937 106.479324 166.29883 250.89626 166.29883 401.4807l0 0c0 313.576 -254.20361 567.7796 -567.77954 567.7796l0 0c-313.576 0 -567.77954 -254.20361 -567.77954 -567.7796z" fill-rule="evenodd"/><path stroke="#335eea" stroke-width="24.0" stroke-linejoin="round" stroke-linecap="butt" d="m54.20055 628.6076l0 0c0 -313.57596 254.20357 -567.7795 567.77954 -567.7795l0 0c150.58447 0 295.0014 59.819458 401.4807 166.29877c106.47937 106.479324 166.29883 250.89626 166.29883 401.4807l0 0c0 313.576 -254.20361 567.7796 -567.77954 567.7796l0 0c-313.576 0 -567.77954 -254.20361 -567.77954 -567.7796z" fill-rule="evenodd"/><path fill="#000000" fill-opacity="0.0" d="m122.02725 628.6233l0 0c0 -276.12497 223.8435 -499.9685 499.96848 -499.9685l0 0c132.59991 0 259.76886 52.675095 353.53113 146.4374c93.76233 93.76227 146.43738 220.93121 146.43738 353.5311l0 0c0 276.125 -223.8435 499.9685 -499.9685 499.9685l0 0c-276.12497 0 -499.96848 -223.8435 -499.96848 -499.9685z" fill-rule="evenodd"/><path stroke="#335eea" stroke-width="24.0" stroke-linejoin="round" stroke-linecap="butt" d="m122.02725 628.6233l0 0c0 -276.12497 223.8435 -499.9685 499.96848 -499.9685l0 0c132.59991 0 259.76886 52.675095 353.53113 146.4374c93.76233 93.76227 146.43738 220.93121 146.43738 353.5311l0 0c0 276.125 -223.8435 499.9685 -499.9685 499.9685l0 0c-276.12497 0 -499.96848 -223.8435 -499.96848 -499.9685z" fill-rule="evenodd"/><path fill="#000000" fill-opacity="0.0" d="m195.68561 628.61237l0 0c0 -235.43854 190.86066 -426.2992 426.2992 -426.2992l0 0c113.061584 0 221.4925 44.913544 301.4391 124.86015c79.946594 79.946594 124.86017 188.37747 124.86017 301.43906l0 0c0 235.43854 -190.86066 426.29926 -426.29926 426.29926l0 0c-235.43854 0 -426.2992 -190.86072 -426.2992 -426.29926z" fill-rule="evenodd"/><path stroke="#335eea" stroke-width="24.0" stroke-linejoin="round" stroke-linecap="butt" d="m195.68561 628.61237l0 0c0 -235.43854 190.86066 -426.2992 426.2992 -426.2992l0 0c113.061584 0 221.4925 44.913544 301.4391 124.86015c79.946594 79.946594 124.86017 188.37747 124.86017 301.43906l0 0c0 235.43854 -190.86066 426.29926 -426.29926 426.29926l0 0c-235.43854 0 -426.2992 -190.86072 -426.2992 -426.29926z" fill-rule="evenodd"/><path fill="#000000" fill-opacity="0.0" d="m267.50476 628.6205l0 0c0 -195.77841 158.70975 -354.4882 354.48816 -354.4882l0 0c94.01611 0 184.18158 37.34778 250.66101 103.82721c66.47943 66.47943 103.82721 156.64487 103.82721 250.66098l0 0c0 195.77844 -158.70978 354.48822 -354.48822 354.48822l0 0c-195.77841 0 -354.48816 -158.70978 -354.48816 -354.48822z" fill-rule="evenodd"/><path stroke="#335eea" stroke-width="24.0" stroke-linejoin="round" stroke-linecap="butt" d="m267.50476 628.6205l0 0c0 -195.77841 158.70975 -354.4882 354.48816 -354.4882l0 0c94.01611 0 184.18158 37.34778 250.66101 103.82721c66.47943 66.47943 103.82721 156.64487 103.82721 250.66098l0 0c0 195.77844 -158.70978 354.48822 -354.48822 354.48822l0 0c-195.77841 0 -354.48816 -158.70978 -354.48816 -354.48822z" fill-rule="evenodd"/><path fill="#000000" fill-opacity="0.0" d="m342.23972 628.63104l0 0c0 -154.50925 125.25452 -279.76376 279.76376 -279.76376l0 0c74.198 0 145.357 29.475037 197.82288 81.94092c52.46588 52.46588 81.94092 123.62491 81.94092 197.82285l0 0c0 154.50928 -125.25452 279.7638 -279.7638 279.7638l0 0c-154.50925 0 -279.76376 -125.25452 -279.76376 -279.7638z" fill-rule="evenodd"/><path stroke="#335eea" stroke-width="24.0" stroke-linejoin="round" stroke-linecap="butt" d="m342.23972 628.63104l0 0c0 -154.50925 125.25452 -279.76376 279.76376 -279.76376l0 0c74.198 0 145.357 29.475037 197.82288 81.94092c52.46588 52.46588 81.94092 123.62491 81.94092 197.82285l0 0c0 154.50928 -125.25452 279.7638 -279.7638 279.7638l0 0c-154.50925 0 -279.76376 -125.25452 -279.76376 -279.7638z" fill-rule="evenodd"/><path fill="#000000" fill-opacity="0.0" d="m412.53366 628.61005l0 0c0 -115.675415 93.77344 -209.44882 209.44882 -209.44882l0 0c55.549255 0 108.823425 22.066864 148.10266 61.34613c39.279297 39.279266 61.34613 92.553375 61.34613 148.10269l0 0c0 115.675354 -93.77338 209.44879 -209.44879 209.44879l0 0c-115.675385 0 -209.44882 -93.77344 -209.44882 -209.44879z" fill-rule="evenodd"/><path stroke="#335eea" stroke-width="24.0" stroke-linejoin="round" stroke-linecap="butt" d="m412.53366 628.61005l0 0c0 -115.675415 93.77344 -209.44882 209.44882 -209.44882l0 0c55.549255 0 108.823425 22.066864 148.10266 61.34613c39.279297 39.279266 61.34613 92.553375 61.34613 148.10269l0 0c0 115.675354 -93.77338 209.44879 -209.44879 209.44879l0 0c-115.675385 0 -209.44882 -93.77344 -209.44882 -209.44879z" fill-rule="evenodd"/></g></svg>