<svg version="1.1" viewBox="0.0 0.0 1404.3307086614172 260.1049868766404" fill="none" stroke="none" stroke-linecap="square" stroke-miterlimit="10" xmlns:xlink="http://www.w3.org/1999/xlink" xmlns="http://www.w3.org/2000/svg"><clipPath id="p.0"><path d="m0 0l1404.3307 0l0 260.10498l-1404.3307 0l0 -260.10498z" clip-rule="nonzero"/></clipPath><g clip-path="url(#p.0)"><path fill="#000000" fill-opacity="0.0" d="m0 0l1404.3307 0l0 260.10498l-1404.3307 0z" fill-rule="evenodd"/><path fill="#000000" fill-opacity="0.0" d="m34.658794 131.40288l0 0c0 -51.584274 41.81731 -93.40158 93.401566 -93.40158l0 0c24.771637 0 48.5287 9.840496 66.04489 27.35669c17.51619 17.51619 27.35669 41.273247 27.35669 66.04489l0 0c0 51.58426 -41.817307 93.401566 -93.40158 93.401566l0 0c-51.58426 0 -93.401566 -41.817307 -93.401566 -93.401566z" fill-rule="evenodd"/><path stroke="#335eea" stroke-width="8.0" stroke-linejoin="round" stroke-linecap="butt" d="m34.658794 131.40288l0 0c0 -51.584274 41.81731 -93.40158 93.401566 -93.40158l0 0c24.771637 0 48.5287 9.840496 66.04489 27.35669c17.51619 17.51619 27.35669 41.273247 27.35669 66.04489l0 0c0 51.58426 -41.817307 93.401566 -93.40158 93.401566l0 0c-51.58426 0 -93.401566 -41.817307 -93.401566 -93.401566z" fill-rule="evenodd"/><path fill="#000000" fill-opacity="0.0" d="m45.81608 131.41055l0 0c0 -45.426506 36.825462 -82.25197 82.25196 -82.25197l0 0c21.81459 0 42.735703 8.665806 58.160934 24.091042c15.425232 15.42524 24.091034 36.346344 24.091034 58.160927l0 0c0 45.426514 -36.825455 82.25197 -82.25197 82.25197l0 0c-45.4265 0 -82.25196 -36.825455 -82.25196 -82.25197z" fill-rule="evenodd"/><path stroke="#335eea" stroke-width="8.0" stroke-linejoin="round" stroke-linecap="butt" d="m45.81608 131.41055l0 0c0 -45.426506 36.825462 -82.25197 82.25196 -82.25197l0 0c21.81459 0 42.735703 8.665806 58.160934 24.091042c15.425232 15.42524 24.091034 36.346344 24.091034 58.160927l0 0c0 45.426514 -36.825455 82.25197 -82.25197 82.25197l0 0c-45.4265 0 -82.25196 -36.825455 -82.25196 -82.25197z" fill-rule="evenodd"/><path fill="#000000" fill-opacity="0.0" d="m57.93265 131.40114l0 0c0 -38.729507 31.396473 -70.12598 70.12599 -70.12598l0 0c18.598572 0 36.43538 7.3882484 49.586563 20.539425c13.151169 13.151176 20.539413 30.987991 20.539413 49.586555l0 0c0 38.729523 -31.39647 70.12599 -70.12598 70.12599l0 0c-38.729515 0 -70.12599 -31.39647 -70.12599 -70.12599z" fill-rule="evenodd"/><path stroke="#335eea" stroke-width="8.0" stroke-linejoin="round" stroke-linecap="butt" d="m57.93265 131.40114l0 0c0 -38.729507 31.396473 -70.12598 70.12599 -70.12598l0 0c18.598572 0 36.43538 7.3882484 49.586563 20.539425c13.151169 13.151176 20.539413 30.987991 20.539413 49.586555l0 0c0 38.729523 -31.39647 70.12599 -70.12598 70.12599l0 0c-38.729515 0 -70.12599 -31.39647 -70.12599 -70.12599z" fill-rule="evenodd"/><path fill="#000000" fill-opacity="0.0" d="m69.74668 131.3884l0 0c0 -32.19776 26.101448 -58.29921 58.299217 -58.29921l0 0c15.461914 0 30.290543 6.1422195 41.22377 17.075447c10.933212 10.93322 17.07544 25.761856 17.07544 41.223763l0 0c0 32.19777 -26.10144 58.29921 -58.29921 58.29921l0 0c-32.19777 0 -58.299217 -26.10144 -58.299217 -58.29921z" fill-rule="evenodd"/><path stroke="#335eea" stroke-width="8.0" stroke-linejoin="round" stroke-linecap="butt" d="m69.74668 131.3884l0 0c0 -32.19776 26.101448 -58.29921 58.299217 -58.29921l0 0c15.461914 0 30.290543 6.1422195 41.22377 17.075447c10.933212 10.93322 17.07544 25.761856 17.07544 41.223763l0 0c0 32.19777 -26.10144 58.29921 -58.29921 58.29921l0 0c-32.19777 0 -58.299217 -26.10144 -58.299217 -58.29921z" fill-rule="evenodd"/><path fill="#000000" fill-opacity="0.0" d="m82.04036 131.3986l0 0c0 -25.413788 20.601952 -46.01574 46.015747 -46.01574l0 0c12.204132 0 23.908417 4.848068 32.53804 13.477699c8.629639 8.629623 13.477707 20.333908 13.477707 32.53804l0 0c0 25.413803 -20.60196 46.015747 -46.015747 46.015747l0 0c-25.413795 0 -46.015747 -20.601944 -46.015747 -46.015747z" fill-rule="evenodd"/><path stroke="#335eea" stroke-width="8.0" stroke-linejoin="round" stroke-linecap="butt" d="m82.04036 131.3986l0 0c0 -25.413788 20.601952 -46.01574 46.015747 -46.01574l0 0c12.204132 0 23.908417 4.848068 32.53804 13.477699c8.629639 8.629623 13.477707 20.333908 13.477707 32.53804l0 0c0 25.413803 -20.60196 46.015747 -46.015747 46.015747l0 0c-25.413795 0 -46.015747 -20.601944 -46.015747 -46.015747z" fill-rule="evenodd"/><path fill="#000000" fill-opacity="0.0" d="m93.60349 131.4027l0 0c0 -19.029907 15.426788 -34.456696 34.456703 -34.456696l0 0c9.1384735 0 17.902664 3.630249 24.364548 10.092133c6.4618835 6.4618835 10.092133 15.226082 10.092133 24.364563l0 0c0 19.029907 -15.426788 34.456696 -34.45668 34.456696l0 0c-19.029915 0 -34.456703 -15.426788 -34.456703 -34.456696z" fill-rule="evenodd"/><path stroke="#335eea" stroke-width="8.0" stroke-linejoin="round" stroke-linecap="butt" d="m93.60349 131.4027l0 0c0 -19.029907 15.426788 -34.456696 34.456703 -34.456696l0 0c9.1384735 0 17.902664 3.630249 24.364548 10.092133c6.4618835 6.4618835 10.092133 15.226082 10.092133 24.364563l0 0c0 19.029907 -15.426788 34.456696 -34.45668 34.456696l0 0c-19.029915 0 -34.456703 -15.426788 -34.456703 -34.456696z" fill-rule="evenodd"/><path fill="#000000" fill-opacity="0.0" d="m301.11285 0.036745407l180.0315 0l0 262.74017l-180.0315 0z" fill-rule="evenodd"/><path fill="#335eea" d="m327.72223 220.19673q-2.296875 0 -3.671875 -1.375q-1.375 -1.375 -1.375 -3.671875l0 -150.20312q0 -2.5312462 1.375 -3.9062462q1.375 -1.375 3.671875 -1.375l48.84375 0q24.296875 0 38.0625 7.109371q13.765625 7.109375 19.609375 20.984375q5.84375 13.875 6.078125 33.828125q0.234375 10.3125 0.234375 18.234375q0 7.90625 -0.234375 18.234375q-0.453125 21.09375 -6.1875 34.859375q-5.734375 13.75 -19.265625 20.515625q-13.53125 6.765625 -37.15625 6.765625l-49.984375 0zm9.390625 -13.765625l39.453125 0q18.34375 0 29.0 -4.921875q10.671875 -4.9375 15.375 -15.828125q4.703125 -10.890625 4.921875 -28.78125q0.234375 -6.875 0.234375 -12.03125q0 -5.171875 0 -10.203125q0 -5.046875 -0.234375 -11.9375q-0.453125 -25.21875 -11.6875 -37.25q-11.234375 -12.046875 -38.765625 -12.046875l-38.296875 0l0 133.0z" fill-rule="nonzero"/><path fill="#000000" fill-opacity="0.0" d="m481.14435 0.020997375l180.0315 0l0 262.74017l-180.0315 0z" fill-rule="evenodd"/><path fill="#335eea" d="m551.3162 220.18098q-2.296875 0 -3.671875 -1.375q-1.375 -1.375 -1.375 -3.671875l0 -56.1875l-55.953125 -91.734375q-0.234375 -0.6875 -0.578125 -1.375q-0.34375 -0.6875 -0.34375 -1.59375q0 -1.84375 1.375 -3.21875q1.375 -1.375 3.21875 -1.375l4.578125 0q1.609375 0 2.984375 0.8125q1.375 0.796875 2.296875 2.625l49.765625 80.953125l49.765625 -80.953125q1.140625 -1.828125 2.40625 -2.625q1.265625 -0.8125 2.859375 -0.8125l4.59375 0q1.828125 0 3.203125 1.375q1.375 1.375 1.375 3.21875q0 0.90625 -0.234375 1.59375q-0.21875 0.6875 -0.671875 1.375l-55.953125 91.734375l0 56.1875q0 2.296875 -1.390625 3.671875q-1.375 1.375 -3.890625 1.375l-4.359375 0z" fill-rule="nonzero"/><path fill="#000000" fill-opacity="0.0" d="m661.17584 0.010498688l180.0315 0l0 262.74017l-180.0315 0z" fill-rule="evenodd"/><path fill="#335eea" d="m687.7852 220.17049q-2.296875 0 -3.671875 -1.375q-1.375 -1.375 -1.375 -3.671875l0 -150.4375q0 -2.296875 1.375 -3.671875q1.375 -1.375 3.671875 -1.375l4.34375 0q2.296875 0 3.671875 1.375q1.375 1.375 1.375 3.671875l0 141.71875l79.125 0q2.515625 0 3.890625 1.390625q1.375 1.375 1.375 3.890625l0 3.4375q0 2.296875 -1.375 3.671875q-1.375 1.375 -3.890625 1.375l-88.515625 0z" fill-rule="nonzero"/><path fill="#000000" fill-opacity="0.0" d="m841.20734 0.010498688l180.0315 0l0 262.74017l-180.0315 0z" fill-rule="evenodd"/><path fill="#335eea" d="m851.3011 220.17049q-1.84375 0 -3.21875 -1.375q-1.375 -1.375 -1.375 -3.21875q0 -1.140625 0.46875 -2.515625l58.015625 -148.82812q0.921875 -2.296875 2.40625 -3.4375q1.484375 -1.15625 4.25 -1.15625l7.796875 0q2.75 0 4.234375 1.15625q1.484375 1.140625 2.40625 3.4375l58.015625 148.82812q0.46875 1.375 0.46875 2.515625q0 1.84375 -1.375 3.21875q-1.375 1.375 -3.21875 1.375l-4.578125 0q-2.296875 0 -3.453125 -1.25q-1.140625 -1.265625 -1.59375 -2.1875l-14.21875 -36.6875l-81.1875 0l-14.21875 36.6875q-0.21875 0.921875 -1.484375 2.1875q-1.265625 1.25 -3.5625 1.25l-4.578125 0zm29.34375 -53.890625l70.1875 0l-35.09375 -90.359375l-35.09375 90.359375z" fill-rule="nonzero"/><path fill="#000000" fill-opacity="0.0" d="m1014.5197 0.020997375l180.03143 0l0 262.74017l-180.03143 0z" fill-rule="evenodd"/><path fill="#335eea" d="m1076.2072 220.18098q-2.296875 0 -3.671875 -1.375q-1.375 -1.375 -1.375 -3.671875l0 -141.71875l-45.40625 0q-2.296814 0 -3.671814 -1.375q-1.375 -1.375 -1.375 -3.671875l0 -3.4375q0 -2.53125 1.375 -3.90625q1.375 -1.375 3.671814 -1.375l105.03125 0q2.53125 0 3.90625 1.375q1.375 1.375 1.375 3.90625l0 3.4375q0 2.296875 -1.375 3.671875q-1.375 1.375 -3.90625 1.375l-45.171875 0l0 141.71875q0 2.296875 -1.375 3.671875q-1.375 1.375 -3.90625 1.375l-4.125 0z" fill-rule="nonzero"/><path fill="#000000" fill-opacity="0.0" d="m1173.7769 0l180.0315 0l0 262.74014l-180.0315 0z" fill-rule="evenodd"/><path fill="#335eea" d="m1200.3862 220.15999q-2.296875 0 -3.671875 -1.375q-1.375 -1.375 -1.375 -3.671875l0 -150.20312q0 -2.53125 1.375 -3.90625q1.375 -1.375 3.671875 -1.375l89.4375 0q2.515625 0 3.890625 1.375q1.375 1.375 1.375 3.90625l0 3.4375q0 2.296875 -1.375 3.671875q-1.375 1.375 -3.890625 1.375l-80.046875 0l0 58.46875l75.0 0q2.515625 0 3.890625 1.375q1.375 1.375 1.375 3.90625l0 3.4375q0 2.296875 -1.375 3.671875q-1.375 1.375 -3.890625 1.375l-75.0 0l0 60.765625l81.875 0q2.515625 0 3.890625 1.390625q1.390625 1.375 1.390625 3.890625l0 3.4375q0 2.296875 -1.390625 3.671875q-1.375 1.375 -3.890625 1.375l-91.265625 0z" fill-rule="nonzero"/></g></svg>